<svg width="25" height="25" viewBox="0 0 25 25" fill="none" xmlns="http://www.w3.org/2000/svg">
    <path d="M24.214 12.107C24.214 14.5015 23.504 16.8423 22.1736 18.8333C20.8433 20.8243 18.9524 22.3761 16.7402 23.2925C14.5279 24.2088 12.0936 24.4486 9.74504 23.9814C7.39651 23.5143 5.23924 22.3612 3.54604 20.668C1.85284 18.9748 0.699761 16.8175 0.232608 14.469C-0.234544 12.1205 0.00521459 9.6861 0.921567 7.47383C1.83792 5.26156 3.38971 3.37071 5.3807 2.04037C7.37169 0.710038 9.71246 -3.66952e-06 12.107 -3.66952e-06C13.697 -0.000249893 15.2714 0.312716 16.7405 0.921063C18.2095 1.52941 19.5442 2.42122 20.6685 3.54551C21.7928 4.6698 22.6846 6.00455 23.2929 7.47356C23.9013 8.94256 24.2143 10.517 24.214 12.107Z" fill="#51B265"/>
    <path d="M17.1062 11.5933C20.4127 5.83503 15.7941 4.56228 15.7941 4.56228C10.7856 3.06272 7.49971 5.91754 7.49971 5.91754C5.10792 7.60454 5.13229 11.7283 5.13229 11.7283C4.90173 17.018 8.06392 18.6994 8.06392 18.6994C8.06392 18.6994 11.8878 21.3536 16.8363 19.3104C21.7848 17.2673 17.1137 11.5896 17.1137 11.5896L17.1062 11.5933ZM14.8007 17.361C11.1342 17.8033 9.55222 16.7218 9.55222 16.7218C9.55222 16.7218 7.72276 15.6271 7.66653 12.6093C7.6103 9.59144 8.34508 8.71419 8.34508 8.71419C8.80817 7.96896 9.50283 7.39612 10.3226 7.08344C12.1221 6.39177 14.1465 6.72351 14.1465 6.72351C14.1465 6.72351 17.1456 6.94286 15.2224 9.7564C15.2224 9.7564 11.4604 6.97657 9.81465 9.9588C9.81465 9.9588 8.68998 12.2906 10.2683 14.3469C11.8465 16.4032 15.468 13.4378 15.468 13.4378C15.468 13.4378 18.4764 16.9205 14.8082 17.361H14.8007ZM13.6835 11.6852L12.0958 12.6224C11.6085 11.8988 12.0865 10.9598 12.0865 10.9598L13.6835 11.6852Z" fill="white"/>  
    </svg>
    